<?xml version="1.0" encoding="UTF-8" standalone="no"?>
<!-- Created with Inkscape (http://www.inkscape.org/) -->

<svg
   width="640"
   height="640"
   viewBox="0 0 169.33334 169.33334"
   version="1.1"
   id="svg1"
   sodipodi:docname="8ball.svg"
   inkscape:version="1.3.2 (091e20e, 2023-11-25, custom)"
   xmlns:inkscape="http://www.inkscape.org/namespaces/inkscape"
   xmlns:sodipodi="http://sodipodi.sourceforge.net/DTD/sodipodi-0.dtd"
   xmlns:xlink="http://www.w3.org/1999/xlink"
   xmlns="http://www.w3.org/2000/svg"
   xmlns:svg="http://www.w3.org/2000/svg">
  <sodipodi:namedview
     id="namedview1"
     pagecolor="#505050"
     bordercolor="#eeeeee"
     borderopacity="1"
     inkscape:showpageshadow="0"
     inkscape:pageopacity="0"
     inkscape:pagecheckerboard="0"
     inkscape:deskcolor="#505050"
     inkscape:zoom="1.0146982"
     inkscape:cx="387.80003"
     inkscape:cy="342.46635"
     inkscape:window-width="1858"
     inkscape:window-height="1057"
     inkscape:window-x="-8"
     inkscape:window-y="-8"
     inkscape:window-maximized="1"
     inkscape:current-layer="layer1" />
  <defs
     id="defs1">
    <linearGradient
       id="linearGradient3">
      <stop
         style="stop-color:#606060;stop-opacity:1;"
         offset="0"
         id="stop3" />
      <stop
         style="stop-color:#808080;stop-opacity:0;"
         offset="1"
         id="stop4" />
    </linearGradient>
    <rect
       x="-13.508059"
       y="36.47176"
       width="191.81442"
       height="222.88297"
       id="rect2" />
    <radialGradient
       xlink:href="#linearGradient3"
       id="radialGradient4"
       cx="72.477211"
       cy="76.080399"
       fx="72.477211"
       fy="76.080399"
       r="79.375"
       gradientUnits="userSpaceOnUse"
       gradientTransform="matrix(1.3365371,-0.64701529,0.41986967,0.86732316,-65.162951,61.712168)" />
  </defs>
  <g
     id="layer1"
     transform="translate(-7.9321594,-34.737206)">
    <circle
       style="opacity:1;fill:#ffffff;stroke-width:1.85207"
       id="path4"
       cx="92.598831"
       cy="119.40388"
       inkscape:label="border"
       r="84.666672" />
    <circle
       style="opacity:1;fill:#000000;stroke-width:1.85208"
       id="path1"
       cx="92.598831"
       cy="119.40388"
       r="79.375"
       inkscape:label="black_circle" />
    <circle
       style="display:inline;opacity:0.65;fill:url(#radialGradient4);stroke-width:1.85208"
       id="path3"
       cx="92.598831"
       cy="119.40388"
       r="79.375"
       inkscape:label="highlight" />
    <path
       id="path2"
       style="opacity:1;fill:#ffffff;stroke-width:1.85208"
       d="m 92.598831,57.899104 a 39.492779,39.492779 0 0 0 -39.49268,39.49268 39.492779,39.492779 0 0 0 39.49268,39.492676 39.492779,39.492779 0 0 0 39.492679,-39.492676 39.492779,39.492779 0 0 0 -39.492679,-39.49268 z m -0.855762,12.470557 c 6.987256,0 12.144661,1.330709 15.471921,3.992521 3.35103,2.661812 5.02657,6.012883 5.02657,10.053133 0,2.352851 -0.66536,4.551055 -1.99626,6.594946 -0.99818,1.521036 -2.5667,2.994948 -4.70566,4.420919 2.82818,1.354672 4.93126,3.148597 6.3097,5.38262 1.4022,2.23402 2.10323,4.7057 2.10323,7.41505 0,2.61428 -0.60591,5.06218 -1.81798,7.34374 -1.18831,2.25778 -2.66171,4.00466 -4.4204,5.2405 -1.73493,1.23584 -3.90936,2.13901 -6.52364,2.7094 -2.590509,0.59415 -5.359459,0.89142 -8.306465,0.89142 -5.537519,0 -9.767975,-0.65347 -12.691215,-1.96061 -2.92324,-1.30714 -5.145225,-3.23237 -6.66626,-5.77535 -1.521035,-2.54299 -2.281514,-5.38328 -2.281514,-8.52041 0,-3.06584 0.712917,-5.65592 2.138887,-7.77111 1.425971,-2.138953 3.624174,-3.790707 6.594946,-4.95525 -2.281552,-1.212075 -3.945198,-2.567082 -4.990909,-4.064351 -1.425971,-2.043891 -2.138888,-4.396672 -2.138888,-7.058484 0,-4.372977 2.055517,-7.949969 6.167066,-10.730611 3.208433,-2.138956 7.45078,-3.208073 12.726871,-3.208073 z m 0.713135,8.840804 c -1.758697,0 -3.196421,0.558339 -4.313432,1.67535 -1.093244,1.093244 -1.64021,2.519594 -1.64021,4.278291 0,1.80623 0.558857,3.267735 1.675867,4.384746 1.140776,1.093244 2.649844,1.639693 4.527372,1.639693 1.663633,0 3.030014,-0.546449 4.099492,-1.639693 1.069478,-1.093244 1.604553,-2.507188 1.604553,-4.242119 0,-1.806229 -0.558857,-3.268251 -1.675867,-4.385262 -1.11701,-1.140776 -2.542844,-1.711006 -4.277775,-1.711006 z m 0,20.534147 c -1.806229,0 -3.386641,0.712918 -4.741313,2.138888 -1.330905,1.42597 -1.99626,3.35121 -1.99626,5.77536 0,2.30532 0.701026,4.19437 2.103231,5.66787 1.402204,1.44974 3.006396,2.17454 4.812626,2.17454 1.734931,0 3.291561,-0.7367 4.669999,-2.2102 1.378438,-1.49727 2.067574,-3.38632 2.067574,-5.66787 0,-2.30532 -0.701026,-4.19488 -2.103231,-5.66839 -1.378438,-1.4735 -2.98263,-2.210198 -4.812626,-2.210198 z"
       inkscape:label="white_circle_w_8" />
  </g>
</svg>
